<svg width="120" height="120" viewBox="0 0 120 120" fill="none" xmlns="http://www.w3.org/2000/svg">
  <!-- Background circle with blue gradient -->
  <defs>
    <linearGradient id="bgGrad3" x1="0%" y1="0%" x2="100%" y2="100%">
      <stop offset="0%" style="stop-color:#ffffff" />
      <stop offset="100%" style="stop-color:#f0f8ff" />
    </linearGradient>
    <linearGradient id="borderGrad3" x1="0%" y1="0%" x2="100%" y2="100%">
      <stop offset="0%" style="stop-color:#3b82f6" />
      <stop offset="50%" style="stop-color:#1e40af" />
      <stop offset="100%" style="stop-color:#1e3a8a" />
    </linearGradient>
    <linearGradient id="letterGrad3" x1="0%" y1="0%" x2="100%" y2="100%">
      <stop offset="0%" style="stop-color:#3b82f6" />
      <stop offset="50%" style="stop-color:#2563eb" />
      <stop offset="100%" style="stop-color:#1e40af" />
    </linearGradient>
    <linearGradient id="accentGrad3" x1="0%" y1="0%" x2="100%" y2="100%">
      <stop offset="0%" style="stop-color:#60a5fa" />
      <stop offset="100%" style="stop-color:#3b82f6" />
    </linearGradient>
    <linearGradient id="innerGrad3" x1="0%" y1="0%" x2="100%" y2="100%">
      <stop offset="0%" style="stop-color:#93c5fd" />
      <stop offset="100%" style="stop-color:#60a5fa" />
    </linearGradient>
  </defs>
  
  <!-- Background circle -->
  <circle cx="60" cy="60" r="58" fill="url(#bgGrad3)" stroke="url(#borderGrad3)" stroke-width="2"/>
  
  <!-- Subtle blue overlay -->
  <circle cx="60" cy="60" r="58" fill="url(#accentGrad3)" opacity="0.05"/>
  
  <!-- Merged S and B design with blue shades -->
  <g transform="translate(60, 60)">
    <!-- Combined SB shape with gradient -->
    <path d="M-25 -25 Q-25 -35 -15 -35 Q-5 -35 -5 -25 Q-5 -15 -15 -15 Q-25 -15 -25 -5 Q-25 5 -15 5 Q-5 5 -5 15 Q-5 25 -15 25 Q-25 25 -25 15 Q-25 5 -15 5 Q-5 5 -5 15 Q-5 25 5 25 Q15 25 15 15 Q15 5 5 5 Q-5 5 -5 15 Q-5 25 5 25 Q15 25 15 35 Q15 35 5 35 Q-5 35 -5 25" 
          fill="none" stroke="url(#letterGrad3)" stroke-width="4" stroke-linecap="round"/>
    
    <!-- Inner detail with light blue -->
    <path d="M-5 -15 Q5 -15 5 -5 Q5 5 -5 5 Q5 5 5 15 Q5 25 -5 25" 
          fill="none" stroke="url(#innerGrad3)" stroke-width="2" stroke-linecap="round"/>
  </g>
  
  <!-- Banking element - minimalist vault door with blue shades -->
  <rect x="50" y="20" width="20" height="15" fill="none" stroke="url(#accentGrad3)" stroke-width="1" opacity="0.4"/>
  <circle cx="60" cy="27" r="2" fill="url(#accentGrad3)" opacity="0.4"/>
</svg>
